<svg id="Layer_1" data-name="Layer 1" xmlns="http://www.w3.org/2000/svg" xmlns:xlink="http://www.w3.org/1999/xlink" viewBox="0 0 3197 2396"><defs><style>.cls-1{fill:#433733;}.cls-2{fill:#422619;}.cls-3{fill:#0f1011;}.cls-4{fill:#1d1e1e;}.cls-5{fill:#bab289;}.cls-6{fill:none;}.cls-7{fill:#826a5b;}.cls-8{fill:#895c3f;}.cls-9{fill:#4a2c1a;}.cls-10{fill:#a98269;}.cls-11{fill:#986647;}.cls-12{fill:#603c22;}.cls-13{fill:#5b3821;}.cls-14{fill:#492917;}.cls-15{fill:url(#linear-gradient);}</style><linearGradient id="linear-gradient" x1="1244.58" y1="1366.66" x2="2080.71" y2="1366.66" gradientUnits="userSpaceOnUse"><stop offset="0" stop-color="#0e0e0e"/><stop offset="0.33" stop-color="#141414"/><stop offset="0.76" stop-color="#242424"/><stop offset="1" stop-color="#303030"/></linearGradient></defs><title>balcao</title><rect class="cls-1" width="3197" height="2396"/><path class="cls-2" d="M-1,251" transform="translate(1244.21 664.48)"/><path class="cls-3" d="M574.44,379.6h-77.5v44.49h20.75V402.46a2.37,2.37,0,0,1,2.38-2.37h27.75a2.37,2.37,0,0,1,2.38,2.38v21.87h24.25Z" transform="translate(1244.21 664.48)"/><path class="cls-3" d="M537.06,415.09h-8.51v9h9.64v-7.87A1.12,1.12,0,0,0,537.06,415.09Z" transform="translate(1244.21 664.48)"/><path class="cls-3" d="M565.48,375.59a11.25,11.25,0,0,1,7,2.47l1.92,1.54-.25-.73a12.21,12.21,0,0,0-11.56-8.28H489.16v53.5h4.28v-48.5Z" transform="translate(1244.21 664.48)"/><path class="cls-4" d="M574.44,379.6l-1.92-1.54a11.25,11.25,0,0,0-7-2.47h-72v48.5h3.5V379.6Z" transform="translate(1244.21 664.48)"/><path class="cls-5" d="M547.81,400.09H520.06a2.37,2.37,0,0,0-2.37,2.38v22.13h10.86v-9.5h8.51a1.12,1.12,0,0,1,1.13,1.13v8.38h12V402.46A2.37,2.37,0,0,0,547.81,400.09Z" transform="translate(1244.21 664.48)"/><polygon class="cls-6" points="1832.83 1241.62 1833.08 1267.84 1833.08 1237.84 1832.83 1237.84 1832.83 1241.62"/><polygon class="cls-7" points="1293.54 1268.08 1293.5 1285.84 1469.58 1285.84 1469.58 1268.08 1293.54 1268.08"/><polygon class="cls-7" points="1244.58 1268.08 1244.58 1285.84 1251.83 1285.84 1293.08 1285.84 1293.08 1268.08 1244.58 1268.08"/><polygon class="cls-7" points="1470.41 1093.41 1650.5 1094.66 1650.5 1087.66 1650.83 1087.66 1650.83 1094.66 1833.08 1095.93 1833.08 1095.67 1833.58 1095.68 1833.58 1088.92 1470.42 1086.39 1470.42 1092.18 1470.41 1093.41"/><polygon class="cls-7" points="1650.42 1285.84 1832.83 1285.84 1832.83 1268.08 1650.46 1268.08 1650.42 1285.84"/><polygon class="cls-7" points="1513.92 1268.08 1470.04 1268.08 1470 1285.84 1650 1285.84 1650 1268.08 1513.92 1268.08"/><polygon class="cls-7" points="1833.92 1088.93 1833.92 1095.68 1833.92 1095.93 1961.08 1096.82 1961.08 1132.86 1893.33 1132.86 1964.83 1133.84 1964.83 1089.84 1833.92 1088.93"/><polygon class="cls-7" points="1293.58 1092.18 1293.58 1085.16 1244.58 1084.82 1244.58 1267.84 1245.26 1091.84 1293.58 1092.18"/><polygon class="cls-7" points="1244.58 1267.84 1244.58 1268.08 1244.58 1267.84 1244.58 1267.84"/><polygon class="cls-7" points="1469.58 1093.4 1469.58 1092.17 1470.08 1092.18 1470.08 1086.39 1293.92 1085.16 1293.92 1092.18 1469.58 1093.4"/><polygon class="cls-8" points="1293.54 1267.62 1469.58 1267.69 1469.58 1093.4 1293.92 1092.18 1293.54 1267.62"/><polygon class="cls-8" points="1470.04 1267.69 1650 1267.76 1650 1094.67 1650.5 1094.68 1650.5 1094.66 1470.41 1093.41 1470.04 1267.69"/><polygon class="cls-8" points="1650.83 1094.68 1650.46 1267.76 1833.08 1267.84 1832.83 1241.62 1832.83 1237.84 1833.08 1237.84 1833.08 1095.93 1650.83 1094.66 1650.83 1094.68"/><polygon class="cls-8" points="1244.59 1267.6 1293.08 1267.62 1293.08 1092.17 1293.58 1092.18 1245.26 1091.84 1244.58 1267.84 1244.58 1267.84 1244.59 1267.6"/><polygon class="cls-8" points="1961.08 1096.82 1833.92 1095.93 1833.61 1237.84 1886.83 1237.84 1888.33 1132.86 1893.33 1132.86 1961.08 1132.86 1961.08 1096.82"/><polygon class="cls-9" points="1293.08 1268.08 1293.08 1285.84 1293.5 1285.84 1293.54 1268.08 1293.08 1268.08"/><polygon class="cls-9" points="1293.08 1092.17 1293.08 1267.62 1293.54 1267.62 1293.92 1092.18 1293.92 1085.16 1293.92 1085.16 1293.58 1085.16 1293.58 1085.16 1293.58 1092.18 1293.08 1092.17"/><polygon class="cls-2" points="1650.46 1267.76 1650.46 1268.08 1832.83 1268.08 1833.08 1268.08 1833.08 1267.84 1650.46 1267.76"/><polygon class="cls-2" points="1470.04 1268.08 1513.92 1268.08 1650 1268.08 1650 1267.76 1470.04 1267.69 1470.04 1268.08"/><polygon class="cls-2" points="1293.54 1268.08 1469.58 1268.08 1469.58 1267.69 1293.54 1267.62 1293.08 1267.62 1244.59 1267.6 1244.58 1267.84 1244.58 1268.08 1293.08 1268.08 1293.54 1268.08"/><polygon class="cls-9" points="1470.04 1267.69 1470.41 1093.41 1470.42 1092.18 1470.42 1086.39 1470.42 1085.16 1470.08 1085.16 1470.08 1086.39 1470.08 1092.18 1469.58 1092.17 1469.58 1093.4 1469.58 1267.69 1469.58 1268.08 1469.58 1285.84 1470 1285.84 1470.04 1268.08 1470.04 1267.69"/><polygon class="cls-9" points="1650.46 1267.76 1650.83 1094.68 1650.83 1094.66 1650.83 1087.66 1650.5 1087.66 1650.5 1094.66 1650.5 1094.68 1650 1094.67 1650 1267.76 1650 1268.08 1650 1285.84 1650 1288.34 1650.42 1288.34 1650.42 1285.84 1650.46 1268.08 1650.46 1267.76"/><polygon class="cls-9" points="1833.92 1095.68 1833.92 1088.93 1833.92 1088.66 1833.58 1088.66 1833.58 1088.92 1833.58 1095.68 1833.08 1095.67 1833.08 1095.93 1833.08 1237.84 1833.08 1267.84 1833.08 1268.08 1833.08 1289.34 1833.5 1289.34 1833.61 1237.84 1833.92 1095.93 1833.92 1095.68"/><polygon class="cls-10" points="1888.33 1132.86 2008.71 1160.98 2100.21 1160.98 1985.46 1133.84 1888.33 1132.86"/><rect class="cls-11" x="2008.71" y="1160.98" width="83.75" height="188.25"/><polygon class="cls-12" points="1888.33 1132.86 1886.46 1289.34 2008.71 1349.23 2008.71 1160.98 1888.33 1132.86"/><polygon class="cls-13" points="1897.35 1175.48 1895.96 1281.48 1941.46 1304.23 1941.46 1187.98 1897.35 1175.48"/><polygon class="cls-13" points="1951.47 1190.73 1950.08 1306.76 1995.58 1331.66 1995.58 1204.42 1951.47 1190.73"/><ellipse class="cls-14" cx="1934.83" cy="1250.61" rx="2.38" ry="3.38"/><ellipse class="cls-14" cx="1956.33" cy="1257.36" rx="2.38" ry="3.38"/><polygon class="cls-15" points="1886.46 1289.34 1886.83 1237.84 1833.61 1237.84 1832.83 1285.84 1244.58 1285.84 1244.58 1464.48 2059.21 1495.48 2080.71 1384.98 2057.48 1373.55 2049.21 1349.23 2008.71 1349.23 1886.46 1289.34"/></svg>