<?xml version="1.0" encoding="utf-8"?>
<!-- Generator: Adobe Illustrator 21.0.0, SVG Export Plug-In . SVG Version: 6.00 Build 0)  -->
<svg version="1.1" id="Layer_1" xmlns="http://www.w3.org/2000/svg" xmlns:xlink="http://www.w3.org/1999/xlink" x="0px" y="0px"
	 viewBox="0 0 800 800" style="enable-background:new 0 0 800 800;" xml:space="preserve">
<style type="text/css">
	.st0{fill:#635343;}
	.st1{fill:#30211C;}
	.st2{fill:#423E38;}
	.st3{fill:#CCE8EA;}
	.st4{fill:#AED3D3;}
	.st5{fill:#BAE2E0;}
	.st6{fill:#DAEAEF;}
	.st7{fill:url(#SVGID_1_);}
	.st8{fill:#422619;}
	.st9{fill:#1C1B21;}
	.st10{fill:#55201B;}
	.st11{fill:#300001;}
	.st12{fill:#A0272D;}
	.st13{fill:#FCFCFC;}
	.st14{font-family:'LokiCola';}
	.st15{font-size:28.3877px;}
	.st16{fill:#5B2C29;}
	.st17{fill:#B1B9BA;}
	.st18{fill:#ADD5D8;}
	.st19{fill:#0F1011;}
	.st20{fill:#1D1E1E;}
	.st21{fill:#BAB289;}
	.st22{fill:#DEE2E2;}
	.st23{fill:#101A33;}
	.st24{fill:none;}
	.st25{fill:#826A5B;}
	.st26{fill:#895C3F;}
	.st27{fill:#4A2C1A;}
	.st28{fill:#DBFCFA;}
	.st29{fill:#A98269;}
	.st30{fill:#986647;}
	.st31{fill:#603C22;}
	.st32{fill:#5B3821;}
	.st33{fill:#492917;}
	.st34{fill:url(#SVGID_2_);}
	.st35{fill:url(#SVGID_3_);}
	.st36{fill:url(#SVGID_4_);}
	.st37{fill:url(#SVGID_5_);}
	.st38{fill:#110700;}
	.st39{fill:url(#SVGID_6_);}
	.st40{fill:url(#SVGID_7_);}
</style>
<polygon class="st0" points="767.8,189.9 764.5,496.5 800,501.3 800,183.7 "/>
<polygon class="st1" points="724,457.3 642.3,457.3 642.3,214.2 724,198 "/>
<polygon class="st2" points="724,438.7 690.3,448.3 690.5,215.3 724,210.5 "/>
<polygon class="st2" points="688.3,454 649.3,454 649.3,222.7 688.3,215.3 "/>
<polygon class="st3" points="685.3,438.7 653.1,438.7 653.1,226.7 685.3,222.7 "/>
<polygon class="st4" points="668.6,224.8 655.2,326.3 655.3,407 678.2,223.6 "/>
<polygon class="st5" points="720.6,435.3 692.4,452.5 692.2,221.8 721,216.7 "/>
<polygon class="st6" points="774.7,204 770,521 800,518.6 800,199.9 "/>
<linearGradient id="SVGID_1_" gradientUnits="userSpaceOnUse" x1="0" y1="332.3333" x2="629.3333" y2="332.3333">
	<stop  offset="0" style="stop-color:#1A0B00"/>
	<stop  offset="0.6154" style="stop-color:#1C0C00"/>
	<stop  offset="0.8368" style="stop-color:#231000"/>
	<stop  offset="0.9943" style="stop-color:#2E1800"/>
	<stop  offset="1" style="stop-color:#2F1800"/>
</linearGradient>
<polygon class="st7" points="629.3,457.3 0,457.3 0,207.3 629.3,216.7 "/>
<path class="st8" d="M-1,251"/>
<path class="st9" d="M589.8,325h57.7c5.8,0,10.5,4.7,10.5,10.5v91.3h6.5v-102c0-2.3-1.9-4.3-4.3-4.3H579h-2c-2.5,0-4.5,2-4.5,4.5
	v100l7-0.5l-0.4-88.7C579,329.8,583.8,325,589.8,325z"/>
<path class="st10" d="M571.8,276.4l-13.2,0c-1.9,0-3.9,2-3.9,3.8L554.5,390h14.3l0.8-67.7c0-0.9,2.3-4.6,3.2-4.6l2.5-1"/>
<path class="st11" d="M575.5,276.3l-0.2,40.3c0,0,0,0,0,0l-0.5,0.1c-1,0.1-1.9,0.4-2.8,0.8l-0.2,0.1v-41.3L575.5,276.3z"/>
<path class="st12" d="M575.5,276.3h87.4c0.9,0,1.6,0.7,1.6,1.6v36.7c0,1.2-0.9,2.5-2.1,2.5l-87.1-0.4L575.5,276.3z"/>
<text transform="matrix(0.9647 0 0 1 579.0267 305.9355)" class="st13 st14 st15">CocaLoca</text>
<path class="st16" d="M575.5,276.3v-3h85.3c4.1,0,7.5,3.4,7.5,7.5v36.6c0,1.7-1.4,3.1-3.1,3.1h-87c-3.2,0-5.8,2.6-5.8,5.8V390h-21.2
	V280.6c0-4,3.2-7.3,7.3-7.3h16.9V276.3l-16.3,0.1c-2.3,0-4.2,1.9-4.2,4.3L554.5,390h14.3l0.3-67.5c0-3.2,2.6-5.8,5.9-5.8l86.3,0.2
	c1.7,0,3.2-1.4,3.2-3.2v-31.3c0-3.1-2.5-5.7-5.7-5.7L575.5,276.3z"/>
<path class="st17" d="M579,328.4l0.4,95.8c0,0.2,0.1,0.3,0.3,0.3l77.8,2.2c0.2,0,0.3-0.1,0.3-0.3v-97.7c0-2.2-1.8-4-4-4h-71.2
	C580.7,324.7,579,326.3,579,328.4z"/>
<polygon class="st18" points="599.5,324.7 579.2,375.6 579.4,416.2 614.8,324.7 "/>
<polygon class="st4" points="600.8,324.7 579.5,378.4 579.7,421.2 617,324.7 "/>
<g>
	<path class="st19" d="M574.4,379.6h-77.5v44.5h20.8v-21.6c0-1.3,1.1-2.4,2.4-2.4h27.8c1.3,0,2.4,1.1,2.4,2.4v21.9h24.3V379.6z"/>
	<path class="st19" d="M537.1,415.1h-8.5v9h9.6v-7.9C538.2,415.6,537.7,415.1,537.1,415.1z"/>
	<path class="st19" d="M565.5,375.6c2.6,0,5,0.9,7,2.5l1.9,1.5l-0.2-0.7c-1.7-5-6.3-8.3-11.6-8.3h-60.2h-13.3v53.5h4.3v-48.5H565.5z
		"/>
	<path class="st20" d="M574.4,379.6l-1.9-1.5c-2-1.6-4.5-2.5-7-2.5h-72v48.5h3.5v-44.5H574.4z"/>
	<path class="st21" d="M547.8,400.1h-27.8c-1.3,0-2.4,1.1-2.4,2.4v21.6v0.5h10.9v-0.5v-9h8.5c0.6,0,1.1,0.5,1.1,1.1v7.9v0.5h12v-0.5
		v-21.6C550.2,401.2,549.1,400.1,547.8,400.1z"/>
</g>
<path class="st22" d="M388.7,325.8l-1.9,98.6c0,0.2,3.2,0,3.4,0l84.7-0.3c0.2,0,0.4-0.1,0.4-0.3V326c0-2.2-2-4-4.4-4h-78
	C390.5,322,388.7,323.7,388.7,325.8z"/>
<path class="st23" d="M487,309.6v114.5h-12v-97.2c0-2-1.6-3.6-3.6-3.6l-80-0.5c-1.6,0-2.9,1.3-2.9,2.9V423l-10,0.1V303.9
	c0-1.4,1.2-2.6,2.6-2.6h97.5C483.3,301.3,487,305,487,309.6z"/>
<g>
	<polygon class="st24" points="588.6,577.1 588.9,603.4 588.9,573.4 588.6,573.4 	"/>
	<polygon class="st25" points="49.3,603.6 49.3,621.4 225.4,621.4 225.4,603.6 	"/>
	<polygon class="st25" points="0,603.6 0,621.4 7.6,621.4 48.9,621.4 48.9,603.6 	"/>
	<polygon class="st25" points="226.2,428.9 406.3,430.2 406.3,423.2 406.6,423.2 406.6,430.2 588.9,431.4 588.9,431.2 589.4,431.2 
		589.4,424.4 226.2,421.9 226.2,427.7 	"/>
	<polygon class="st25" points="406.2,621.4 588.6,621.4 588.6,603.6 406.3,603.6 	"/>
	<polygon class="st25" points="269.7,603.6 225.8,603.6 225.8,621.4 405.8,621.4 405.8,603.6 	"/>
	<polygon class="st25" points="589.7,424.4 589.7,431.2 589.7,431.4 716.9,432.3 716.9,468.4 649.1,468.4 720.6,469.4 720.6,425.4 	
		"/>
	<polygon class="st25" points="49.4,427.7 49.4,420.7 0.4,420.3 0.4,603.4 1.1,427.4 	"/>
	<polygon class="st25" points="0.4,603.4 0.4,603.6 0.4,603.4 	"/>
	<polygon class="st25" points="225.4,428.9 225.4,427.7 225.9,427.7 225.9,421.9 49.7,420.7 49.7,427.7 	"/>
	<polygon class="st26" points="49.3,603.1 225.4,603.2 225.4,428.9 49.7,427.7 	"/>
	<polygon class="st26" points="225.8,603.2 405.8,603.3 405.8,430.2 406.3,430.2 406.3,430.2 226.2,428.9 	"/>
	<polygon class="st26" points="406.6,430.2 406.3,603.3 588.9,603.4 588.6,577.1 588.6,573.4 588.9,573.4 588.9,431.4 406.6,430.2 	
		"/>
	<polygon class="st26" points="0.4,603.1 48.9,603.1 48.9,427.7 49.4,427.7 0,427.3 0,602.9 0,603.1 	"/>
	<polygon class="st26" points="716.9,432.3 589.7,431.4 589.4,573.4 642.6,573.4 644.1,468.4 649.1,468.4 716.9,468.4 	"/>
	<polygon class="st27" points="48.9,603.6 48.9,621.4 49.3,621.4 49.3,603.6 	"/>
	<polygon class="st27" points="48.9,427.7 48.9,603.1 49.3,603.1 49.7,427.7 49.7,420.7 49.7,420.7 49.4,420.7 49.4,420.7 
		49.4,427.7 	"/>
	<polygon class="st8" points="406.3,603.3 406.3,603.6 588.6,603.6 588.9,603.6 588.9,603.4 	"/>
	<polygon class="st8" points="225.8,603.6 269.7,603.6 405.8,603.6 405.8,603.3 225.8,603.2 	"/>
	<polygon class="st8" points="49.3,603.6 225.4,603.6 225.4,603.2 49.3,603.1 48.9,603.1 0.3,603.1 0,603.1 0,603.6 48.9,603.6 	"/>
	<polygon class="st27" points="225.8,603.2 226.2,428.9 226.2,427.7 226.2,421.9 226.2,420.7 225.9,420.7 225.9,421.9 225.9,427.7 
		225.4,427.7 225.4,428.9 225.4,603.2 225.4,603.6 225.4,621.4 225.8,621.4 225.8,603.6 	"/>
	<polygon class="st27" points="406.3,603.3 406.6,430.2 406.6,430.2 406.6,423.2 406.3,423.2 406.3,430.2 406.3,430.2 405.8,430.2 
		405.8,603.3 405.8,603.6 405.8,621.4 405.8,623.9 406.2,623.9 406.2,621.4 406.3,603.6 	"/>
	<polygon class="st27" points="589.7,431.2 589.7,424.4 589.7,424.2 589.4,424.2 589.4,424.4 589.4,431.2 588.9,431.2 588.9,431.4 
		588.9,573.4 588.9,603.4 588.9,603.6 588.9,624.9 589.3,624.9 589.4,573.4 589.7,431.4 	"/>
</g>
<polygon class="st4" points="410.3,323.2 389,376.9 389.2,419.7 426.5,323.2 "/>
<polygon class="st28" points="420.8,323.2 388.9,386.2 388.5,421.9 444.9,323.2 "/>
<polygon class="st29" points="741.3,469.4 644.1,468.4 764.5,496.5 800,496.5 800,483.3 "/>
<rect x="764.5" y="496.5" class="st30" width="35.5" height="188.3"/>
<polygon class="st31" points="644.1,468.4 642.3,624.9 764.5,684.8 764.5,496.5 "/>
<polygon class="st32" points="653.1,511 651.8,617 697.3,639.8 697.3,523.5 "/>
<polygon class="st32" points="707.3,526.3 705.9,642.3 751.4,667.2 751.4,539.9 "/>
<ellipse class="st33" cx="690.6" cy="586.1" rx="2.4" ry="3.4"/>
<ellipse class="st33" cx="712.1" cy="592.9" rx="2.4" ry="3.4"/>
<polygon class="st4" points="702.7,221 692.2,283.5 692.2,365 711.8,220.4 "/>
<linearGradient id="SVGID_2_" gradientUnits="userSpaceOnUse" x1="0" y1="686.6765" x2="800" y2="686.6765">
	<stop  offset="0" style="stop-color:#0E0E0E"/>
	<stop  offset="0.3308" style="stop-color:#141414"/>
	<stop  offset="0.7585" style="stop-color:#242424"/>
	<stop  offset="1" style="stop-color:#303030"/>
</linearGradient>
<polygon class="st34" points="764.5,684.8 642.3,624.9 642.6,573.4 589.4,573.4 588.6,621.4 0,621.4 0,800 800,800 800,684.8 "/>
<linearGradient id="SVGID_3_" gradientUnits="userSpaceOnUse" x1="0" y1="167.8777" x2="629.3333" y2="167.8777">
	<stop  offset="0" style="stop-color:#62574D"/>
	<stop  offset="0.5053" style="stop-color:#60564C"/>
	<stop  offset="0.6953" style="stop-color:#595048"/>
	<stop  offset="0.832" style="stop-color:#4D4741"/>
	<stop  offset="0.9426" style="stop-color:#3C3A37"/>
	<stop  offset="1" style="stop-color:#303030"/>
</linearGradient>
<polygon class="st35" points="629.3,216.7 0,207.3 0,119 629.3,131 "/>
<linearGradient id="SVGID_4_" gradientUnits="userSpaceOnUse" x1="866.5913" y1="373.0528" x2="626.9359" y2="133.3974">
	<stop  offset="0" style="stop-color:#62574D"/>
	<stop  offset="0.3738" style="stop-color:#60554C"/>
	<stop  offset="0.5906" style="stop-color:#574F47"/>
	<stop  offset="0.7673" style="stop-color:#49443F"/>
	<stop  offset="0.9216" style="stop-color:#353433"/>
	<stop  offset="0.9554" style="stop-color:#303030"/>
</linearGradient>
<polygon class="st36" points="629.3,131 629.3,216.7 629.3,273.3 642.3,273.3 642.3,214.2 724,198.4 720.6,469.4 741.9,469.4 
	764.7,474.9 767.8,189.9 800,183.7 800,64.2 "/>
<linearGradient id="SVGID_5_" gradientUnits="userSpaceOnUse" x1="366.7342" y1="-84.5805" x2="427.2746" y2="177.6489">
	<stop  offset="0" style="stop-color:#8D8A8A"/>
	<stop  offset="0.2624" style="stop-color:#8A8787"/>
	<stop  offset="0.45" style="stop-color:#817F7F"/>
	<stop  offset="0.6144" style="stop-color:#717171"/>
	<stop  offset="0.7653" style="stop-color:#5B5E5D"/>
	<stop  offset="0.9057" style="stop-color:#3F4543"/>
	<stop  offset="1" style="stop-color:#27302E"/>
</linearGradient>
<polygon class="st37" points="0.4,0 0,119 629.3,131 800,64.2 800,0 "/>
<rect x="132" y="273.3" class="st38" width="225.3" height="3"/>
<linearGradient id="SVGID_6_" gradientUnits="userSpaceOnUse" x1="190.4167" y1="305" x2="190.4167" y2="276.3395">
	<stop  offset="0" style="stop-color:#9E9E9E"/>
	<stop  offset="0.4283" style="stop-color:#9C9C9C"/>
	<stop  offset="0.5826" style="stop-color:#959595"/>
	<stop  offset="0.6926" style="stop-color:#8A8A8A"/>
	<stop  offset="0.7815" style="stop-color:#797979"/>
	<stop  offset="0.8576" style="stop-color:#636363"/>
	<stop  offset="0.925" style="stop-color:#484848"/>
	<stop  offset="0.9845" style="stop-color:#282828"/>
	<stop  offset="1" style="stop-color:#1F1F1F"/>
</linearGradient>
<rect x="189.7" y="276.3" class="st39" width="1.5" height="28.7"/>
<linearGradient id="SVGID_7_" gradientUnits="userSpaceOnUse" x1="305.9167" y1="305" x2="305.9167" y2="276.3395">
	<stop  offset="0" style="stop-color:#9E9E9E"/>
	<stop  offset="0.4283" style="stop-color:#9C9C9C"/>
	<stop  offset="0.5826" style="stop-color:#959595"/>
	<stop  offset="0.6926" style="stop-color:#8A8A8A"/>
	<stop  offset="0.7815" style="stop-color:#797979"/>
	<stop  offset="0.8576" style="stop-color:#636363"/>
	<stop  offset="0.925" style="stop-color:#484848"/>
	<stop  offset="0.9845" style="stop-color:#282828"/>
	<stop  offset="1" style="stop-color:#1F1F1F"/>
</linearGradient>
<rect x="305.2" y="276.3" class="st40" width="1.5" height="28.7"/>
</svg>
